<?xml version="1.0" encoding="UTF-8" standalone="no"?><!DOCTYPE svg PUBLIC "-//W3C//DTD SVG 1.1//EN" "http://www.w3.org/Graphics/SVG/1.1/DTD/svg11.dtd"><svg width="100%" height="100%" viewBox="0 0 25 25" version="1.1" xmlns="http://www.w3.org/2000/svg" xmlns:xlink="http://www.w3.org/1999/xlink" xml:space="preserve" xmlns:serif="http://www.serif.com/" style="fill-rule:evenodd;clip-rule:evenodd;stroke-linejoin:round;stroke-miterlimit:1.41421;"><rect id="globe" x="0.232" y="0.23" width="24" height="24" style="fill:none;"/><path d="M12.232,1.43c5.961,0 10.8,4.839 10.8,10.8c0,5.96 -4.839,10.8 -10.8,10.8c-5.96,0 -10.8,-4.84 -10.8,-10.8c0,-5.961 4.84,-10.8 10.8,-10.8Zm-0.428,14.705l-0.002,0c-0.863,0.007 -1.759,0.057 -2.593,0.265c0.263,0.861 0.619,1.68 1.072,2.43c0.072,0.119 0.148,0.236 0.228,0.349c0.064,0.089 0.13,0.176 0.2,0.26c0.054,0.065 0.11,0.128 0.167,0.189c0.064,0.067 0.132,0.133 0.203,0.195c0.238,0.036 0.48,0.061 0.725,0.075l0,-3.763Zm0.908,0.028l0,3.732c0.256,-0.016 0.508,-0.044 0.757,-0.085c0.58,-0.517 0.942,-1.325 1.213,-1.977c0.161,-0.387 0.307,-0.788 0.437,-1.197c-0.767,-0.277 -1.59,-0.418 -2.407,-0.473Zm3.189,0.814c-0.25,0.889 -0.602,1.74 -1.111,2.496c0.837,-0.296 1.607,-0.733 2.282,-1.282c-0.103,-0.587 -0.667,-0.955 -1.171,-1.214Zm-7.423,-0.344c-0.5,0.198 -0.963,0.472 -1.368,0.853c-0.082,0.078 -0.154,0.168 -0.212,0.267c0.776,0.75 1.71,1.337 2.746,1.709c-0.387,-0.609 -0.668,-1.3 -0.891,-1.95c-0.098,-0.289 -0.19,-0.583 -0.275,-0.879Zm11.417,-3.884l-3.384,0c-0.023,0.688 -0.084,1.376 -0.177,2.056c-0.059,0.438 -0.132,0.878 -0.224,1.313c0.283,0.142 0.552,0.306 0.804,0.496c0.334,0.25 0.621,0.601 0.796,0.997c1.248,-1.271 2.059,-2.973 2.185,-4.862Zm-12.079,0l-3.246,0c0.11,1.644 0.738,3.147 1.722,4.347c0.473,-0.583 1.21,-0.967 1.982,-1.237c-0.243,-1.017 -0.401,-2.065 -0.458,-3.11Zm8.022,0l-3.126,0l0,2.561c0.905,0.053 1.813,0.196 2.648,0.49c0.255,-0.991 0.419,-2.022 0.478,-3.051Zm-4.034,2.536l0,-2.536l-3.159,0c0.018,0.98 0.136,1.953 0.357,2.888c0.913,-0.241 1.862,-0.345 2.802,-0.352Zm-5.469,-7.974c-1.035,1.24 -1.687,2.811 -1.773,4.529l3.229,0c0.003,-1.061 0.115,-2.109 0.352,-3.112c-0.687,-0.296 -1.277,-0.702 -1.691,-1.245c-0.041,-0.055 -0.081,-0.113 -0.117,-0.172Zm9.203,1.644c-0.878,0.287 -1.861,0.412 -2.826,0.448l0,2.437l3.15,0c-0.003,-0.988 -0.108,-1.962 -0.324,-2.885Zm2.442,-1.817c-0.054,0.117 -0.123,0.233 -0.208,0.345c-0.412,0.542 -0.967,0.941 -1.606,1.23c0.226,1.015 0.338,2.067 0.354,3.127l3.383,0c-0.09,-1.8 -0.801,-3.437 -1.923,-4.702Zm-8.927,1.906c-0.221,0.911 -0.354,1.853 -0.396,2.796l3.147,0l0,-2.428c-0.921,-0.019 -1.879,-0.128 -2.751,-0.368Zm2.751,-4.483c-0.127,0.007 -0.253,0.017 -0.378,0.031c-0.697,0.388 -1.154,1.221 -1.459,1.861c-0.273,0.572 -0.504,1.171 -0.694,1.789c0.8,0.222 1.678,0.303 2.531,0.319l0,-4Zm0.908,0.003l0,3.99c0.888,-0.035 1.794,-0.156 2.595,-0.432c-0.356,-1.106 -0.891,-2.113 -1.626,-2.949c-0.048,-0.055 -0.098,-0.108 -0.149,-0.16c-0.162,-0.163 -0.348,-0.314 -0.552,-0.427c-0.089,-0.009 -0.178,-0.016 -0.268,-0.022Zm-2.81,0.346c-1.096,0.349 -2.087,0.938 -2.908,1.706c0.043,0.194 0.142,0.384 0.306,0.548c0.309,0.309 0.671,0.553 1.069,0.744c0.342,-1.084 0.846,-2.099 1.533,-2.998Zm4.643,-0.006c0.261,0.339 0.479,0.701 0.648,1.038c0.308,0.612 0.557,1.253 0.752,1.913c0.355,-0.178 0.678,-0.398 0.955,-0.666c0.201,-0.196 0.373,-0.443 0.416,-0.714c-0.794,-0.703 -1.735,-1.243 -2.771,-1.571Z"/></svg>