<?xml version="1.0" encoding="UTF-8" standalone="no"?>
<svg
   xmlns:dc="http://purl.org/dc/elements/1.1/"
   xmlns:cc="http://creativecommons.org/ns#"
   xmlns:rdf="http://www.w3.org/1999/02/22-rdf-syntax-ns#"
   xmlns:svg="http://www.w3.org/2000/svg"
   xmlns="http://www.w3.org/2000/svg"
   xmlns:sodipodi="http://sodipodi.sourceforge.net/DTD/sodipodi-0.dtd"
   xmlns:inkscape="http://www.inkscape.org/namespaces/inkscape"
   inkscape:version="1.0 (4035a4f, 2020-05-01)"
   sodipodi:docname="globe.svg"
   id="svg13"
   style="fill-rule:evenodd;clip-rule:evenodd;stroke-linejoin:round;stroke-miterlimit:1.41421;"
   xml:space="preserve"
   version="1.1"
   viewBox="0 0 25 25"
   height="100%"
   width="100%"><metadata
     id="metadata19"><rdf:RDF><cc:Work
         rdf:about=""><dc:format>image/svg+xml</dc:format><dc:type
           rdf:resource="http://purl.org/dc/dcmitype/StillImage" /></cc:Work></rdf:RDF></metadata><defs
     id="defs17" /><sodipodi:namedview
     inkscape:current-layer="svg13"
     inkscape:window-maximized="0"
     inkscape:window-y="22"
     inkscape:window-x="0"
     inkscape:cy="13.038887"
     inkscape:cx="16.658547"
     inkscape:zoom="19.00703"
     showgrid="false"
     id="namedview15"
     inkscape:window-height="833"
     inkscape:window-width="1338"
     inkscape:pageshadow="2"
     inkscape:pageopacity="0"
     guidetolerance="10"
     gridtolerance="10"
     objecttolerance="10"
     borderopacity="1"
     bordercolor="#666666"
     pagecolor="#ffffff" /><rect
     style="fill:none;"
     height="24"
     width="24"
     y="0.23"
     x="0.232"
     id="globe" /><path
     style="stroke-width:0.738995"
     shape-rendering="geometricPrecision"
     d="m 12.500369,3.6365007 c -4.9327878,0 -8.8634989,3.9307114 -8.8634989,8.8627593 0,4.932049 3.9307111,8.864239 8.8627599,8.864239 4.932049,0 8.8635,-3.930711 8.8635,-8.863499 0,-4.9327879 -3.929973,-8.8634994 -8.862761,-8.8634993 z M 5.5634283,12.576855 12.423514,19.43694 c -3.7770008,0 -6.8600857,-3.083084 -6.8600857,-6.860085 z M 14.041912,19.28249 5.7178782,10.958457 C 6.410316,7.8753727 9.1859791,5.5630592 12.49963,5.5630592 a 7.0027113,7.0027113 0 0 1 5.626704,2.8525186 L 17.124997,9.2624653 A 5.6584804,5.6584804 0 0 0 12.423514,6.7964408 5.583103,5.583103 0 0 0 7.1049706,10.572702 l 7.2451014,7.245841 c 1.773587,-0.617061 3.159941,-2.157864 3.545696,-4.008306 h -3.00623 V 12.5 h 4.547772 c 0,3.314389 -2.312313,6.089313 -5.395398,6.78249 z"
     id="path23" /><path
     shape-rendering="geometricPrecision"
     id="path864"
     d="M 12.5 0.70507812 C 5.9973431 0.70507801 0.70507801 5.9973431 0.70507812 12.5 C 0.70507813 19.002657 5.9973432 24.294922 12.5 24.294922 C 19.002657 24.294922 24.294922 19.002657 24.294922 12.5 C 24.294922 5.9973432 19.002657 0.70507812 12.5 0.70507812 z M 12.5 2.5898438 C 17.983927 2.5898438 22.410156 7.0160728 22.410156 12.5 C 22.410156 17.983927 17.983927 22.410156 12.5 22.410156 C 7.0160728 22.410156 2.5898438 17.983927 2.5898438 12.5 C 2.5898436 7.0160727 7.0160727 2.5898436 12.5 2.5898438 z "
     style="color:#000000;font-style:normal;font-variant:normal;font-weight:normal;font-stretch:normal;font-size:medium;line-height:normal;font-family:sans-serif;font-variant-ligatures:normal;font-variant-position:normal;font-variant-caps:normal;font-variant-numeric:normal;font-variant-alternates:normal;font-variant-east-asian:normal;font-feature-settings:normal;font-variation-settings:normal;text-indent:0;text-align:start;text-decoration:none;text-decoration-line:none;text-decoration-style:solid;text-decoration-color:#000000;letter-spacing:normal;word-spacing:normal;text-transform:none;writing-mode:lr-tb;direction:ltr;text-orientation:mixed;dominant-baseline:auto;baseline-shift:baseline;text-anchor:start;white-space:normal;shape-padding:0;shape-margin:0;inline-size:0;clip-rule:nonzero;display:inline;overflow:visible;visibility:visible;isolation:auto;mix-blend-mode:normal;color-interpolation:sRGB;color-interpolation-filters:linearRGB;solid-color:#000000;solid-opacity:1;vector-effect:none;fill:#000000;fill-opacity:1;fill-rule:nonzero;stroke:none;stroke-width:1.885;stroke-linecap:butt;stroke-linejoin:miter;stroke-miterlimit:1.41421;stroke-dasharray:none;stroke-dashoffset:0;stroke-opacity:1;color-rendering:auto;image-rendering:auto;shape-rendering:auto;text-rendering:auto;enable-background:accumulate;stop-color:#000000;stop-opacity:1;opacity:1" /></svg>
